<svg width="100" height="80" viewBox="0 0 100 80" fill="none" xmlns="http://www.w3.org/2000/svg">
<path d="M0 40.2407C0.0058175 60.0394 17.8914 76.8971 42.1835 80V51.8719H29.499V40.2407H42.1985V31.3865C41.6308 27.191 43.4111 23.0097 47.0566 19.9765C50.702 16.9433 55.8348 15.3726 61.0629 15.6905C64.8154 15.7393 68.5586 16.0083 72.2625 16.4954V26.392H65.9427C63.767 26.1626 61.5796 26.741 59.9968 27.9643C58.4139 29.1875 57.6069 30.9233 57.803 32.6825V40.2407H71.6575L69.4426 51.8759H57.803V80C84.0745 76.6579 102.497 57.3445 99.7241 36.0514C96.9512 14.7583 73.9539 -1.06027 47.3925 0.055559C20.8311 1.17138 0.00422224 18.831 0 40.2407Z" fill="white"/>
</svg>
