<?xml version="1.0" encoding="UTF-8"?>
<svg width="41" height="13" viewBox="0 0 41 13" xmlns="http://www.w3.org/2000/svg" xmlns:xlink="http://www.w3.org/1999/xlink">
  <title>1508</title>
  <style>
    @media (prefers-color-scheme: light) {
      .fav {
        color: black;
      }
    }
    @media (prefers-color-scheme: dark) {
      .fav {
        color: white;
      }
    }
  </style>
  <path class="fav" fill="currentColor" fill-rule="nonzero" d="M7.704 12.78a.39.39 0 00.288-.108.345.345 0 00.108-.252v-.9a.345.345 0 00-.108-.252.345.345 0 00-.252-.108H5.22c-.12 0-.18-.054-.18-.162V.54a.345.345 0 00-.108-.252A.345.345 0 004.68.18H.396a.39.39 0 00-.288.108A.345.345 0 000 .54v.864c0 .12.036.216.108.288A.345.345 0 00.36 1.8h2.7c.12 0 .18.066.18.198v8.946c0 .072-.018.126-.054.162a.195.195 0 01-.144.054H.396a.39.39 0 00-.288.108.345.345 0 00-.108.252v.864c0 .12.036.216.108.288a.345.345 0 00.252.108h7.344zm6.786.18c.612 0 1.179-.105 1.701-.315a4.105 4.105 0 002.286-2.223 4.19 4.19 0 00.333-1.674c0-.588-.099-1.137-.297-1.647a3.812 3.812 0 00-.864-1.332 4.176 4.176 0 00-1.368-.9 4.624 4.624 0 00-1.791-.333 3.04 3.04 0 00-1.152.234c-.12.048-.219.051-.297.009-.078-.042-.105-.117-.081-.225l.378-2.502c.024-.108.066-.177.126-.207a.478.478 0 01.216-.045h3.564a.39.39 0 00.288-.108.345.345 0 00.108-.252v-.9a.345.345 0 00-.108-.252.345.345 0 00-.252-.108h-5.148c-.228 0-.36.102-.396.306l-.027.198c-.018.132-.045.315-.081.549l-.153.999a290.346 290.346 0 00-.567 3.906 2.54 2.54 0 00-.036.324c0 .132.084.216.252.252.06.012.198.042.414.09.216.048.402.087.558.117.156.03.258.045.306.045.06 0 .105-.009.135-.027a.521.521 0 00.117-.117l.09-.104c.162-.166.378-.296.648-.391.324-.114.69-.171 1.098-.171.336 0 .66.066.972.198.312.132.582.312.81.54a2.618 2.618 0 01.756 1.836c0 .36-.069.699-.207 1.017a2.732 2.732 0 01-.549.828c-.228.234-.498.42-.81.558a2.378 2.378 0 01-.972.207c-.6 0-1.086-.156-1.458-.468-.372-.312-.66-.726-.864-1.242-.072-.192-.174-.288-.306-.288a.32.32 0 00-.144.036l-.972.378c-.168.06-.252.162-.252.306 0 .072.018.15.054.234.156.384.348.741.576 1.071a3.54 3.54 0 001.926 1.395c.42.132.9.198 1.44.198zm10.89 0c.612 0 1.167-.099 1.665-.297a3.668 3.668 0 001.278-.837c.354-.36.627-.792.819-1.296a4.668 4.668 0 00.288-1.674V4.104c0-.612-.096-1.17-.288-1.674a3.702 3.702 0 00-.819-1.296 3.668 3.668 0 00-1.278-.837A4.471 4.471 0 0025.38 0c-.612 0-1.167.099-1.665.297a3.668 3.668 0 00-1.278.837c-.354.36-.627.792-.819 1.296a4.668 4.668 0 00-.288 1.674v4.752c0 .612.096 1.17.288 1.674.192.504.465.936.819 1.296.354.36.78.639 1.278.837a4.471 4.471 0 001.665.297zm0-1.62c-.336 0-.642-.063-.918-.189a2.182 2.182 0 01-.711-.513 2.251 2.251 0 01-.459-.783 2.982 2.982 0 01-.162-.999c-.012-.252-.018-.51-.018-.774v-3.24c0-.252.006-.498.018-.738 0-.36.054-.693.162-.999.108-.306.261-.567.459-.783.198-.216.435-.387.711-.513.276-.126.582-.189.918-.189.336 0 .642.063.918.189s.513.297.711.513c.198.216.351.477.459.783.108.306.162.639.162.999v.756c0 .228.003.483.009.765a40.196 40.196 0 010 1.71c-.006.282-.009.537-.009.765v.756c0 .36-.054.693-.162.999a2.251 2.251 0 01-.459.783 2.182 2.182 0 01-.711.513 2.185 2.185 0 01-.918.189zm10.584 1.62c.588 0 1.134-.102 1.638-.306a4.055 4.055 0 001.314-.846 3.99 3.99 0 00.882-1.278 3.986 3.986 0 00.324-1.62c0-.66-.138-1.251-.414-1.773a3.674 3.674 0 00-1.116-1.287l-.171-.135c-.054-.042-.081-.087-.081-.135 0-.036.018-.075.054-.117l.162-.189c.504-.564.756-1.242.756-2.034A3.186 3.186 0 0038.34.918a3.243 3.243 0 00-1.062-.675A3.528 3.528 0 0035.964 0c-.468 0-.906.081-1.314.243a3.243 3.243 0 00-1.062.675 3.177 3.177 0 00-.972 2.322c0 .444.072.843.216 1.197.144.354.348.663.612.927.024.024.051.054.081.09a.19.19 0 01.045.126c0 .072-.078.162-.234.27-.468.336-.84.765-1.116 1.287-.276.522-.414 1.113-.414 1.773 0 .588.108 1.128.324 1.62.216.492.51.918.882 1.278s.813.642 1.323.846c.51.204 1.053.306 1.629.306zm0-8.1c-.42 0-.783-.144-1.089-.432-.306-.288-.459-.684-.459-1.188 0-.504.153-.9.459-1.188a1.535 1.535 0 011.089-.432c.42 0 .783.153 1.089.459.306.306.459.693.459 1.161 0 .468-.153.855-.459 1.161a1.488 1.488 0 01-1.089.459zm0 6.48c-.324 0-.627-.063-.909-.189a2.415 2.415 0 01-1.449-2.241 2.419 2.419 0 011.449-2.241c.282-.126.585-.189.909-.189a2.335 2.335 0 011.665.702c.21.216.378.471.504.765.126.294.189.615.189.963s-.063.669-.189.963a2.495 2.495 0 01-.504.765 2.335 2.335 0 01-1.665.702z"/>
</svg>
