<svg width="100" height="80" viewBox="0 0 100 80" fill="none" xmlns="http://www.w3.org/2000/svg">
<path d="M49.9722 80C36.3132 80 34.7029 79.9423 29.3726 79.756C25.2158 79.6468 21.1129 78.9718 17.2404 77.76C10.5403 75.6771 5.24231 71.4432 2.63742 66.09C1.17882 62.9853 0.392104 59.705 0.310938 56.3894C0 52.1402 0 50.7474 0 39.9202C0 28.9776 0.0721821 27.7002 0.310938 23.4642C0.393879 20.1531 1.18057 16.8774 2.63742 13.7769C5.23949 8.41663 10.5461 4.17907 17.2571 2.10246C21.1363 0.932368 25.2379 0.302259 29.3837 0.239521C34.6863 0 36.4298 0 49.9722 0C63.7424 0 65.3248 0.0576624 70.5719 0.239521C74.7284 0.302802 78.8409 0.932844 82.7318 2.10246C89.4409 4.18143 94.7465 8.41817 97.3515 13.7769C98.8347 16.9226 99.6255 20.2495 99.689 23.6106C100 27.8598 100 29.2482 100 40.071C100 50.8938 99.9223 52.3131 99.689 56.5136C99.6064 59.8323 98.8178 63.1156 97.357 66.2231C94.7455 71.58 89.4395 75.8154 82.7318 77.8975C78.8465 79.0605 74.7424 79.6889 70.5941 79.756C65.2915 80 63.5536 80 49.9722 80ZM49.7835 7.02151C36.2021 7.02151 34.7918 7.07474 29.4892 7.26547C26.3242 7.29896 23.1898 7.76554 20.2221 8.64493C15.8398 9.98451 12.3722 12.7434 10.6774 16.2386C9.56809 18.6352 8.98394 21.1665 8.95058 23.7214C8.6563 28.0195 8.6563 29.1462 8.6563 39.9202C8.6563 50.5655 8.70627 51.8563 8.95058 56.1277C9.00029 58.6569 9.5841 61.1612 10.6774 63.5352C12.3747 67.0281 15.8417 69.7849 20.2221 71.1244C23.1878 72.0097 26.3234 72.4764 29.4892 72.5039C34.864 72.7523 36.2798 72.7523 49.7835 72.7523C63.4037 72.7523 64.814 72.699 70.0722 72.5039C73.2393 72.4731 76.3761 72.0064 79.3448 71.1244C83.7005 69.7733 87.1456 67.0228 88.8395 63.544C89.9467 61.1455 90.5308 58.613 90.5663 56.0568H90.6274C90.8662 51.8164 90.8662 50.6853 90.8662 39.8492C90.8662 29.0131 90.8051 27.8731 90.5663 23.6372C90.5166 21.1109 89.9327 18.6095 88.8395 16.2386C87.1495 12.7548 83.7039 9.99908 79.3448 8.64493C76.3767 7.76111 73.2395 7.29439 70.0722 7.26547C64.7029 7.02151 63.2982 7.02151 49.7835 7.02151ZM49.9722 60.4081C39.5891 60.4134 30.2244 55.4213 26.2458 47.7598C22.2671 40.0984 24.4581 31.2767 31.797 25.409C39.1358 19.5413 50.1769 17.7834 59.771 20.9551C69.3651 24.1268 75.6224 31.6034 75.6246 39.898C75.6094 51.2134 64.1369 60.3861 49.9722 60.4081ZM49.9722 26.5824C40.7726 26.5824 33.3148 32.54 33.3148 39.8891C33.3148 47.2382 40.7726 53.1958 49.9722 53.1958C59.1719 53.1958 66.6296 47.2382 66.6296 39.8891C66.6083 32.5471 59.163 26.5995 49.9722 26.5824ZM76.6241 23.4198C73.3227 23.41 70.6546 21.2667 70.6608 18.6294C70.6669 15.9921 73.3449 13.8568 76.6463 13.8568C79.9477 13.8568 82.6257 15.9921 82.6319 18.6294C82.6334 19.9018 82.0005 21.1223 80.8732 22.0212C79.7459 22.9201 78.2169 23.4234 76.6241 23.4198Z" fill="white"/>
</svg>
