<svg width="100" height="80" viewBox="0 0 100 80" fill="none" xmlns="http://www.w3.org/2000/svg">
<path d="M90.9313 80H9.06311C4.05806 79.9951 0.00306306 76.7491 0 72.7451V7.25049C0.00612723 3.24819 4.06023 0.00490178 9.06311 0H90.9258C95.9305 0.00488856 99.9878 3.24675 100 7.25049V72.7451C99.9939 76.7498 95.9373 79.9951 90.9313 80ZM20.3781 29.6336L18.2207 35.9944H25.3267L20.7339 50.9669C20.3965 52.1512 20.2102 53.3599 20.1779 54.5744C19.9195 56.5288 20.7938 58.4704 22.5509 59.844C24.308 61.2176 26.7545 61.872 29.191 61.6202C34.3607 61.4408 39.0044 59.0379 41.3289 55.3394L39.5107 61.122H49.5802L55.3239 42.7022C56.7695 37.9872 59.6163 35.5852 63.7698 35.5852C65.2456 35.4971 66.6953 35.932 67.7347 36.7747C68.7742 37.6174 69.2985 38.7828 69.1687 39.9622C69.1834 40.8382 69.0239 41.7106 68.6961 42.5466L65.7604 51.0247C65.337 52.1987 65.1236 53.4148 65.1265 54.6366C64.9675 56.5882 65.9013 58.4954 67.675 59.8413C69.4487 61.1872 71.8786 61.8326 74.3064 61.6024C80.0334 61.6024 84.0256 58.4887 86.1885 52.3458L82.2574 51.1315C80.7228 54.6411 79.0881 56.3492 77.2533 56.3492C75.9133 56.3492 75.2071 55.6063 75.2071 54.1963C75.2449 53.4567 75.3847 52.7228 75.6241 52.0078L78.5154 43.7431C79.1711 42.0426 79.5084 40.2738 79.5163 38.4943C79.847 36.1297 78.9165 33.7631 76.9532 31.9757C74.99 30.1883 72.1759 29.1458 69.2021 29.1043C63.3741 29.741 58.3421 32.6891 55.8243 36.9419L57.826 29.7492H42.3242L40.1501 35.9766H47.345L42.8969 50.1574C41.3436 53.6411 37.3566 56.0569 32.7439 56.3091C32.5726 56.3112 32.4014 56.3008 32.2324 56.278C30.8813 56.0245 30.0973 55.6108 30.0973 54.2674C30.1288 53.157 30.3343 52.0542 30.7089 50.9847L37.4701 29.6336H20.3781ZM33.4167 15.5685C31.2515 15.5685 29.2507 16.4926 28.1681 17.9928C27.0855 19.4929 27.0855 21.3411 28.1681 22.8413C29.2507 24.3414 31.2515 25.2655 33.4167 25.2655V25.1543C35.0378 25.1648 36.5984 24.6628 37.7592 23.7576C38.8973 22.8586 39.533 21.6298 39.5218 20.3503C39.4791 17.6837 36.7502 15.5463 33.4167 15.5685Z" fill="white"/>
</svg>
