<svg width="100" height="80" viewBox="0 0 100 80" fill="none" xmlns="http://www.w3.org/2000/svg">
<path d="M88.2207 12.6143C92.5061 10.0911 95.7127 6.11806 97.2416 1.43695C93.2147 3.79014 88.8088 5.44779 84.2146 6.33823C77.8448 -0.297904 67.7527 -1.91284 59.5774 2.39581C51.4021 6.70447 47.1675 15.87 49.2399 24.771C32.745 23.9554 17.3772 16.2816 6.96051 3.65924C1.52424 12.8941 4.30229 24.6993 13.3091 30.6375C10.0522 30.5343 6.86742 29.6659 4.02046 28.1044C4.02046 28.1892 4.02046 28.2739 4.02046 28.3587C4.02234 37.9783 10.9063 46.2645 20.48 48.1709C17.459 48.9804 14.2901 49.0996 11.2152 48.5194C13.9076 56.7459 21.606 62.3818 30.3805 62.5499C23.1133 68.1675 14.1384 71.2139 4.90009 71.199C3.2626 71.2013 1.6264 71.1085 0 70.9212C9.38134 76.8584 20.3001 80.0098 31.4514 79.9987C46.9655 80.1036 61.8751 74.0799 72.8451 63.2751C83.815 52.4702 89.93 37.7857 89.8222 22.5063C89.8222 21.6306 89.8014 20.7596 89.76 19.8933C93.7779 17.0335 97.2455 13.4908 100 9.43155C96.2569 11.0656 92.2864 12.1384 88.2207 12.6143Z" fill="white"/>
</svg>
